<?xml version="1.0" encoding="utf-8"?>
<!-- Generator: Adobe Illustrator 21.0.0, SVG Export Plug-In . SVG Version: 6.00 Build 0)  -->
<svg version="1.1" id="Livello_1" xmlns="http://www.w3.org/2000/svg" xmlns:xlink="http://www.w3.org/1999/xlink" x="0px" y="0px"
	 viewBox="0 0 71.2 66.7" style="enable-background:new 0 0 71.2 66.7;" xml:space="preserve">
<style type="text/css">
	.st0{fill:#FFFFFF;}
	.st1{fill:#D1CECC;}
</style>
<title>Asset 1</title>
<g>
	<rect x="3.7" y="3.7" class="st0" width="54" height="59.3"/>
	<path class="st1" d="M0,0v66.7h61.4V0H0z M57.7,63H3.7V3.7h54.1V63z"/>
	<g>
		<g>
			<path class="st1" d="M11.6,28.2V16.3h2.3v9.8h5.4v2.1H11.6z"/>
			<path class="st1" d="M21.1,28.2V16.3h7.8v2.1h-5.5v2.8h4.7v2.1h-4.7v2.9h5.5v2.1L21.1,28.2z"/>
			<path class="st1" d="M31.2,28.2V16.3H39v2.1h-5.5v2.8h4.7v2.1h-4.7v2.9H39v2.1L31.2,28.2z"/>
			<path class="st1" d="M48.7,27c-0.4,0.4-0.9,0.7-1.4,0.8c-0.6,0.2-1.2,0.3-1.8,0.3h-4.3V16.3h4.3c0.6,0,1.2,0.1,1.7,0.3
				c0.6,0.2,1.1,0.5,1.5,1c0.4,0.4,0.7,1,0.9,1.6c0.2,0.8,0.2,1.5,0.2,2.3V23c0,0.8-0.1,1.6-0.2,2.4C49.5,26,49.1,26.6,48.7,27z
				 M47,19.1c-0.2-0.2-0.4-0.4-0.7-0.6c-0.3-0.1-0.7-0.2-1-0.2h-1.7v7.7h1.7c0.6,0.1,1.2-0.1,1.6-0.6c0.3-0.3,0.5-0.8,0.6-1.2
				c0.1-0.7,0.1-1.4,0.1-2.1c0-0.7,0-1.4-0.1-2.1C47.4,19.8,47.3,19.4,47,19.1z"/>
		</g>
		<g>
			<path class="st1" d="M17.2,40c-0.3,0.3-0.7,0.6-1.1,0.8c-0.4,0.2-0.9,0.2-1.4,0.2c-0.5,0-0.9-0.1-1.3-0.3
				c-0.4-0.2-0.8-0.5-1.1-0.8c-0.4-0.3-0.6-0.8-0.7-1.3c-0.1-0.7-0.1-1.5-0.1-2.2c0-0.7,0-1.5,0.1-2.2c0.1-0.5,0.3-0.9,0.7-1.3
				c0.3-0.3,0.7-0.6,1.1-0.8c0.4-0.2,0.9-0.3,1.3-0.2c0.8,0,1.7,0.2,2.3,0.8c0.6,0.5,0.9,1.3,1,2h-1.8c-0.1-0.8-0.8-1.3-1.6-1.3
				c-0.4,0-0.8,0.1-1,0.4c-0.2,0.2-0.4,0.5-0.4,0.9c-0.1,0.6-0.1,1.2-0.1,1.7c0,0.6,0,1.2,0.1,1.8c0.1,0.3,0.2,0.6,0.4,0.8
				c0.3,0.3,0.7,0.4,1.1,0.4c0.4,0,0.8-0.1,1.1-0.4c0.2-0.2,0.3-0.4,0.4-0.7c0.1-0.2,0.1-0.4,0.1-0.7v-0.3h-1.6V36h3.3v1.3
				c0,0.5-0.1,1.1-0.2,1.6C17.7,39.3,17.5,39.7,17.2,40z"/>
			<path class="st1" d="M24.6,41l-1.7-3.6h-1.3V41h-1.7v-8.9h3.5c0.8,0,1.5,0.2,2.1,0.8c0.5,0.5,0.8,1.2,0.8,1.9
				c0,0.5-0.1,1.1-0.5,1.5c-0.3,0.4-0.7,0.7-1.2,0.9l2,3.9H24.6z M23.2,33.6h-1.6V36h1.6c0.3,0,0.7-0.1,0.9-0.3
				c0.5-0.5,0.5-1.2,0-1.7C23.9,33.7,23.6,33.6,23.2,33.6z"/>
			<path class="st1" d="M28,41v-8.9h5.9v1.6h-4.1v2.1h3.5v1.6h-3.5v2.2h4.1V41H28z"/>
			<path class="st1" d="M35.6,41v-8.9h5.9v1.6h-4.1v2.1h3.5v1.6h-3.5v2.2h4.1V41H35.6z"/>
			<path class="st1" d="M48.4,41l-3.5-5.5V41h-1.7v-8.9h1.6l3.5,5.5v-5.5H50V41H48.4z"/>
		</g>
		<g>
			<path class="st1" d="M14.7,50.3l-0.3-1h-1.9l-0.3,1h-1.1l2-5.4h0.8l2,5.4H14.7z M13.5,46.5l-0.7,2h1.4L13.5,46.5z"/>
			<path class="st1" d="M18,50.4c-0.4,0-0.8,0-1.1-0.2c-0.3-0.1-0.6-0.3-0.9-0.6l0.7-0.7c0.2,0.2,0.4,0.3,0.6,0.4
				c0.2,0.1,0.5,0.1,0.7,0.1c0.6,0,1-0.2,1-0.7c0-0.1,0-0.3-0.1-0.4c-0.1-0.1-0.1-0.1-0.2-0.2c-0.1,0-0.2-0.1-0.3-0.1L17.7,48
				c-0.4,0-0.8-0.2-1.1-0.5c-0.3-0.3-0.4-0.7-0.4-1c0-0.5,0.2-0.9,0.5-1.2c0.4-0.3,0.9-0.5,1.4-0.5c0.3,0,0.7,0,1,0.1
				c0.3,0.1,0.6,0.3,0.8,0.5l-0.7,0.7c-0.1-0.1-0.3-0.2-0.5-0.3c-0.2-0.1-0.4-0.1-0.6-0.1c-0.2,0-0.4,0.1-0.6,0.2
				c-0.2,0.2-0.3,0.5-0.2,0.7c0,0.1,0.1,0.2,0.2,0.2c0.1,0.1,0.3,0.2,0.5,0.2l0.6,0.1c0.4,0,0.7,0.2,1,0.4c0.2,0.1,0.3,0.3,0.4,0.6
				c0.1,0.2,0.1,0.4,0.1,0.7c0,0.5-0.2,0.9-0.6,1.2C19.1,50.3,18.5,50.4,18,50.4z"/>
			<path class="st1" d="M22.5,50.4c-0.4,0-0.8,0-1.1-0.2c-0.3-0.1-0.6-0.3-0.9-0.6l0.7-0.7c0.2,0.2,0.4,0.3,0.6,0.4
				c0.2,0.1,0.5,0.1,0.7,0.1c0.6,0,1-0.2,1-0.7c0-0.1,0-0.3-0.1-0.4c-0.1-0.1-0.1-0.1-0.2-0.2c-0.1,0-0.2-0.1-0.3-0.1L22.2,48
				c-0.4,0-0.8-0.2-1.1-0.5c-0.3-0.3-0.4-0.7-0.4-1c0-0.5,0.2-0.9,0.5-1.2c0.4-0.3,0.9-0.5,1.4-0.5c0.3,0,0.7,0,1,0.1
				c0.3,0.1,0.6,0.3,0.8,0.5l-0.7,0.7c-0.1-0.1-0.3-0.2-0.5-0.3c-0.2-0.1-0.4-0.1-0.6-0.1c-0.2,0-0.4,0.1-0.6,0.2
				c-0.1,0.1-0.2,0.3-0.2,0.5c0,0.1,0,0.1,0,0.2c0,0.1,0.1,0.2,0.2,0.2c0.1,0.1,0.3,0.2,0.5,0.2l0.6,0.1c0.4,0,0.7,0.2,1,0.4
				c0.2,0.1,0.3,0.3,0.4,0.6c0.1,0.2,0.1,0.4,0.1,0.7c0,0.5-0.2,0.9-0.6,1.2C23.6,50.3,23.1,50.4,22.5,50.4z"/>
			<path class="st1" d="M28.9,49.8c-0.2,0.2-0.4,0.3-0.6,0.4c-0.3,0.1-0.5,0.2-0.8,0.2c-0.3,0-0.6,0-0.8-0.2
				c-0.3-0.1-0.5-0.3-0.7-0.5c-0.2-0.2-0.4-0.5-0.4-0.8c-0.1-0.4-0.1-0.9-0.1-1.3c0-0.5,0-0.9,0.1-1.3c0.1-0.3,0.2-0.6,0.4-0.8
				c0.2-0.2,0.4-0.4,0.7-0.5c0.5-0.2,1.1-0.2,1.6,0c0.3,0.1,0.5,0.3,0.7,0.5c0.2,0.2,0.4,0.5,0.4,0.8c0.1,0.4,0.1,0.9,0.1,1.3
				c0,0.5,0,0.9-0.1,1.3C29.2,49.3,29.1,49.6,28.9,49.8z M28.1,46.1c-0.2-0.2-0.4-0.3-0.7-0.3c-0.1,0-0.3,0-0.4,0.1
				c-0.1,0.1-0.2,0.1-0.3,0.2c-0.1,0.1-0.2,0.3-0.2,0.4c0,0.4-0.1,0.7,0,1.1c0,0.4,0,0.7,0,1.1c0,0.2,0.1,0.4,0.3,0.5
				c0.2,0.2,0.4,0.3,0.6,0.2c0.2,0,0.5-0.1,0.6-0.2c0.1-0.2,0.2-0.3,0.3-0.5c0-0.3,0.1-0.7,0.1-1c0-0.4,0-0.7-0.1-1.1
				C28.2,46.4,28.2,46.2,28.1,46.1L28.1,46.1z"/>
			<path class="st1" d="M32.3,50.4c-0.3,0-0.6,0-0.8-0.2c-0.3-0.1-0.5-0.3-0.7-0.5c-0.2-0.2-0.4-0.5-0.4-0.8
				c-0.1-0.4-0.1-0.9-0.1-1.3c0-0.5,0-0.9,0.1-1.3c0.1-0.3,0.2-0.6,0.4-0.8c0.2-0.2,0.4-0.4,0.7-0.5c0.3-0.1,0.5-0.2,0.8-0.1
				c1,0,1.9,0.7,2,1.7h-1.1c0-0.2-0.2-0.4-0.3-0.6c-0.2-0.1-0.4-0.2-0.6-0.2c-0.2,0-0.5,0.1-0.6,0.2c-0.1,0.2-0.2,0.3-0.3,0.5
				c0,0.4-0.1,0.7-0.1,1.1c0,0.4,0,0.7,0.1,1.1c0,0.2,0.1,0.4,0.3,0.5c0.2,0.2,0.4,0.3,0.6,0.2c0.2,0,0.4-0.1,0.6-0.2
				c0.2-0.2,0.3-0.3,0.3-0.6h1.1C34.2,49.7,33.3,50.4,32.3,50.4L32.3,50.4z"/>
			<path class="st1" d="M35.2,50.3v-5.4h1.1v5.4L35.2,50.3z"/>
			<path class="st1" d="M40.6,50.3l-0.3-1h-1.9l-0.3,1H37l2-5.4h0.8l2,5.4L40.6,50.3z M39.4,46.5l-0.7,2H40L39.4,46.5z"/>
			<path class="st1" d="M44.5,45.8v4.5h-1.1v-4.5H42v-0.9h3.9v0.9L44.5,45.8z"/>
			<path class="st1" d="M46.8,50.3v-5.4h3.6v0.9h-2.5v1.3H50v0.9h-2.1v1.3h2.5v0.9L46.8,50.3z"/>
		</g>
	</g>
	<g>
		<path class="st1" d="M65.8,0.3h-1.1V0h2.6v0.3h-1.1v3h-0.4L65.8,0.3z"/>
		<path class="st1" d="M68.1,0h0.4l1.2,1.8L70.9,0h0.4v3.3h-0.4V0.6l-1.2,1.8h0l-1.2-1.8v2.7h-0.4V0z"/>
	</g>
</g>
</svg>
